<?xml version="1.0" standalone="no"?>
<!DOCTYPE svg PUBLIC "-//W3C//DTD SVG 20010904//EN"
 "http://www.w3.org/TR/2001/REC-SVG-20010904/DTD/svg10.dtd">
<svg version="1.0" xmlns="http://www.w3.org/2000/svg"
 width="1000.000000pt" height="828.000000pt" viewBox="0 0 1000.000000 828.000000"
 preserveAspectRatio="xMidYMid meet">
<metadata>
Created by potrace 1.16, written by Peter Selinger 2001-2019
</metadata>
<g transform="translate(0.000000,828.000000) scale(0.100000,-0.100000)"
fill="#000000" stroke="none">
<path d="M0 4140 l0 -4140 5000 0 5000 0 0 4140 0 4140 -5000 0 -5000 0 0
-4140z m1890 3454 c47 -76 104 -166 126 -199 23 -33 96 -168 164 -300 123
-240 174 -333 216 -390 12 -16 59 -95 104 -175 45 -80 124 -208 175 -286 83
-127 128 -183 340 -423 61 -70 65 -77 65 -123 0 -27 -10 -85 -21 -130 -14 -53
-22 -117 -23 -178 -1 -85 3 -107 37 -211 25 -79 48 -128 70 -155 18 -21 41
-52 51 -67 17 -28 17 -29 -1 -42 -19 -14 -59 -35 -158 -81 -33 -15 -89 -55
-125 -88 -36 -34 -77 -70 -91 -81 -14 -11 -30 -28 -36 -38 -5 -10 -34 -29 -64
-41 -66 -27 -235 -153 -304 -227 -28 -30 -68 -80 -89 -111 -21 -32 -42 -55
-46 -53 -4 2 -17 33 -30 67 -28 76 -103 228 -140 283 -42 62 -197 373 -219
440 -45 137 -53 318 -20 459 19 78 21 109 16 216 -7 130 -36 294 -81 441 -38
129 -49 229 -43 417 3 124 10 192 27 262 26 112 23 231 -10 401 -35 183 -45
304 -33 416 12 104 26 147 46 140 7 -2 50 -66 97 -143z m7114 -536 c27 -133 9
-476 -38 -722 -38 -195 -50 -284 -66 -471 -13 -160 -37 -246 -125 -455 -37
-87 -40 -128 -20 -251 22 -131 16 -233 -18 -318 -33 -82 -106 -201 -176 -290
-59 -73 -166 -259 -238 -413 -52 -110 -127 -221 -186 -275 -51 -47 -157 -100
-231 -114 -27 -5 -56 -15 -64 -21 -24 -20 -62 -86 -62 -108 0 -11 -40 -62 -94
-119 -64 -67 -98 -113 -109 -142 -20 -59 -65 -327 -77 -464 -25 -277 -58 -370
-172 -485 -53 -54 -87 -76 -194 -130 -134 -67 -277 -155 -308 -189 -9 -10 -29
-52 -44 -93 -24 -66 -27 -86 -27 -212 l0 -138 -37 -42 c-20 -23 -65 -57 -100
-76 -34 -19 -95 -54 -133 -79 -120 -78 -591 -300 -755 -354 -241 -81 -735
-222 -853 -243 -51 -9 -200 -43 -332 -74 -132 -32 -301 -72 -376 -89 -137 -31
-292 -80 -394 -126 -110 -48 -388 -107 -418 -88 -7 4 -52 8 -102 8 -77 1 -98
5 -145 28 -212 105 -323 209 -470 442 -67 107 -130 230 -130 255 0 13 20 15
128 15 121 0 130 -1 197 -32 61 -27 88 -33 210 -43 136 -10 141 -12 167 -40
15 -17 34 -30 42 -30 9 0 33 -15 53 -34 21 -18 48 -38 60 -45 38 -20 123 -13
182 14 30 14 54 24 55 23 42 -97 164 -296 189 -309 7 -4 31 -10 54 -14 37 -6
45 -3 68 19 23 23 25 33 25 105 0 97 27 236 70 356 18 50 38 112 45 139 17 59
22 65 71 77 78 17 84 15 84 -38 0 -118 55 -308 97 -340 9 -7 31 -13 48 -13 34
0 51 15 100 88 58 88 212 212 261 212 7 0 40 13 76 30 97 45 244 73 353 67 53
-3 102 -12 120 -21 37 -20 99 -20 188 -1 125 26 175 67 305 244 25 36 69 90
97 120 28 31 63 74 77 96 34 50 171 177 280 258 120 89 320 203 407 232 111
36 239 65 292 65 140 0 282 59 347 143 97 126 127 290 71 399 -24 47 -64 68
-130 68 -48 0 -55 -3 -93 -43 -22 -24 -53 -62 -68 -85 -31 -46 -43 -49 -127
-31 -84 18 -123 89 -136 249 -3 42 -17 107 -31 145 -40 111 -40 106 10 179 65
95 69 118 64 361 -5 209 -5 211 -43 330 -20 66 -46 165 -56 220 -39 201 -81
299 -156 365 l-43 38 72 42 c40 24 102 62 138 86 36 24 184 123 330 220 146
97 299 205 340 239 41 34 118 93 170 130 124 89 292 227 325 268 15 17 105
115 200 217 194 207 281 312 360 433 30 45 74 109 98 142 25 33 60 85 78 115
54 90 182 271 187 265 3 -3 11 0 19 6 17 15 18 43 1 32 -21 -12 50 73 87 106
43 37 73 40 79 9z m-6226 -607 c70 -65 157 -143 193 -173 129 -104 394 -324
514 -428 67 -58 160 -136 206 -175 46 -38 120 -104 164 -146 44 -41 93 -84
108 -94 54 -35 156 -44 492 -45 438 0 723 -29 848 -84 95 -43 129 -47 437 -56
343 -9 395 -16 630 -77 96 -25 187 -48 201 -50 44 -8 107 16 187 72 42 30 136
94 207 141 174 116 314 216 405 289 42 33 127 93 190 134 63 41 175 114 249
163 73 49 138 87 143 86 15 -5 -195 -228 -286 -302 -43 -36 -119 -95 -170
-130 -50 -36 -118 -88 -151 -117 -51 -43 -172 -127 -690 -472 -68 -46 -148
-94 -219 -133 -52 -28 -62 -31 -80 -19 -12 8 -50 23 -86 35 -36 12 -108 41
-160 65 -83 38 -147 60 -290 96 -19 5 -152 12 -295 15 -242 6 -264 8 -310 29
-141 64 -176 70 -380 69 -104 -1 -273 -5 -374 -9 -127 -5 -200 -4 -235 4 -103
22 -238 30 -366 21 -142 -10 -282 -49 -439 -121 -46 -22 -87 -39 -90 -39 -3 0
-17 17 -30 38 -13 20 -36 54 -49 75 -14 20 -38 74 -54 118 -35 100 -38 199 -8
310 25 94 26 217 3 266 -9 19 -48 69 -87 111 -181 195 -274 318 -412 545 -51
83 -62 107 -48 107 3 0 63 -54 132 -119z m1335 -1430 c43 -5 81 -11 84 -15 4
-3 -52 -64 -123 -134 -95 -93 -138 -144 -162 -189 -37 -71 -121 -186 -217
-300 -37 -43 -78 -98 -92 -123 -15 -25 -34 -54 -44 -65 -26 -29 -197 -310
-236 -385 -18 -36 -51 -108 -73 -160 -22 -52 -48 -108 -57 -125 -95 -181 -138
-272 -160 -344 -15 -47 -45 -135 -68 -196 -23 -60 -50 -140 -60 -178 -16 -60
-20 -66 -34 -53 -82 71 -202 54 -320 -47 -79 -68 -91 -90 -91 -170 0 -77 25
-189 50 -227 9 -14 27 -50 39 -80 47 -111 100 -206 142 -254 35 -40 41 -51 31
-65 -42 -58 -56 -100 -60 -178 -3 -47 0 -95 7 -114 6 -18 9 -34 7 -36 -6 -6
-146 65 -181 91 -16 13 -45 53 -63 90 -32 64 -92 235 -92 261 0 7 -10 25 -21
39 -20 26 -21 35 -15 128 4 55 18 168 32 251 20 121 30 161 55 203 34 60 32
95 -8 121 -19 13 -31 14 -59 5 -32 -10 -36 -8 -58 21 -47 64 -96 197 -96 264
l0 36 22 -28 c12 -15 51 -42 87 -58 53 -24 80 -30 137 -31 67 -1 75 1 128 38
66 46 137 135 178 226 16 36 61 107 99 158 115 153 265 426 320 581 29 84 26
241 -7 356 -33 115 -55 157 -115 220 -27 29 -49 57 -49 63 0 19 83 80 150 110
36 16 103 51 150 77 222 126 381 194 505 214 66 11 240 12 338 2z m912 -15
c73 -19 105 -39 152 -95 24 -27 91 -87 149 -132 59 -45 132 -104 162 -131 64
-56 358 -206 531 -270 58 -22 147 -54 196 -73 50 -18 142 -56 205 -85 131 -59
185 -106 235 -205 29 -57 29 -63 33 -239 l4 -181 -29 -55 c-24 -45 -35 -56
-62 -61 -37 -8 -82 -48 -183 -164 -38 -44 -81 -93 -96 -109 -29 -31 -182 -149
-188 -144 -1 2 6 29 16 60 10 31 30 109 44 174 23 110 25 136 22 349 -2 228
-2 231 -30 287 -19 40 -41 68 -74 92 -26 19 -58 46 -71 60 -36 38 -141 104
-176 110 -47 8 -133 40 -218 80 -315 150 -549 151 -767 2 -228 -156 -349 -293
-424 -479 -60 -148 -85 -354 -60 -489 25 -139 33 -209 34 -298 1 -185 57 -409
117 -472 43 -45 118 -75 253 -102 245 -47 304 -44 585 30 94 25 202 54 240 64
159 41 249 89 321 171 100 113 173 177 343 303 83 61 168 143 233 224 27 34
53 62 58 62 19 0 51 -107 65 -220 9 -68 25 -146 36 -174 40 -107 156 -177 295
-177 94 0 140 29 191 124 15 26 31 46 37 44 7 -2 11 -34 11 -78 -1 -62 -5 -82
-30 -127 -35 -64 -59 -85 -131 -112 -49 -18 -78 -20 -272 -20 -238 0 -345 -12
-484 -56 -159 -50 -317 -153 -572 -375 -191 -165 -244 -190 -423 -197 -195 -7
-276 15 -416 116 -35 25 -59 55 -89 110 -105 191 -322 402 -413 402 -76 0
-144 -86 -152 -194 -5 -53 -1 -71 25 -133 41 -96 48 -149 27 -199 -14 -33 -14
-51 -5 -126 17 -141 0 -162 -235 -282 -80 -41 -94 -45 -135 -40 -26 3 -88 1
-139 -6 -51 -6 -95 -9 -98 -6 -4 3 2 45 13 93 10 49 18 97 16 108 -4 32 -40
55 -85 55 -38 0 -47 -6 -121 -81 -61 -60 -86 -79 -101 -75 -10 3 -69 -6 -130
-20 -60 -14 -135 -29 -165 -34 -30 -4 -81 -13 -113 -19 -31 -7 -81 -11 -109
-9 -47 3 -54 6 -68 33 -9 18 -15 57 -15 97 0 58 4 72 30 110 32 45 42 49 145
68 102 18 204 73 278 148 69 71 131 167 161 252 11 30 34 93 51 140 51 140 68
209 94 386 14 93 33 191 41 218 20 65 19 82 -5 106 -23 23 -58 26 -84 7 -28
-20 -55 -120 -82 -302 -27 -177 -49 -275 -64 -275 -4 0 -11 19 -15 43 -11 69
-42 123 -81 142 -43 20 -76 14 -166 -31 -37 -19 -70 -34 -73 -34 -14 0 -1 57
41 175 25 72 58 171 75 220 50 152 73 203 142 320 10 17 27 50 38 75 11 25 33
74 49 110 65 148 115 242 198 372 153 240 166 260 315 444 49 60 107 143 130
184 40 75 161 204 324 347 l62 55 108 3 c59 2 151 8 203 13 146 14 260 13 315
-2z m665 -95 c110 -9 294 -56 353 -91 17 -10 68 -33 112 -50 44 -17 105 -44
135 -60 30 -15 81 -40 114 -56 34 -17 72 -45 91 -69 40 -48 75 -147 82 -232
l6 -63 -104 49 c-101 47 -238 102 -404 160 -44 16 -163 69 -265 118 -145 71
-201 104 -260 154 -42 35 -97 80 -123 99 -25 19 -47 38 -47 43 0 9 177 8 310
-2z m-3030 -539 c0 -5 -12 -19 -26 -33 -43 -40 -151 -182 -203 -268 -109 -180
-192 -451 -195 -636 -1 -99 7 -134 59 -257 14 -33 -10 -17 -45 30 -79 108
-105 236 -80 391 25 148 110 337 240 533 88 135 250 289 250 240z m2535 -155
c-33 -18 -82 -48 -110 -66 -78 -54 -255 -239 -297 -310 -59 -102 -97 -304 -98
-526 0 -64 -7 -116 -25 -180 -14 -50 -25 -116 -25 -150 1 -138 55 -287 132
-364 22 -23 38 -44 35 -47 -8 -9 -120 24 -145 43 -15 11 -35 49 -53 98 -26 71
-31 101 -39 260 -6 99 -20 229 -32 289 -22 114 -21 234 3 362 21 114 91 246
189 357 38 43 235 198 287 225 39 21 127 41 183 41 l55 1 -60 -33z m-2520
-1719 c0 -73 4 -154 9 -180 13 -69 -4 -59 -41 25 -66 148 -67 187 -11 244 23
24 42 43 43 43 0 0 0 -60 0 -132z m1784 -147 c66 -64 74 -89 50 -162 -11 -32
-55 -89 -70 -89 -3 0 -9 19 -13 42 -4 23 -19 71 -33 107 -25 62 -30 103 -17
144 3 9 9 17 14 17 4 0 35 -27 69 -59z m-2144 -651 c25 -53 29 -71 28 -148 -1
-95 -21 -252 -34 -266 -9 -10 -33 69 -49 163 -14 81 0 311 19 311 4 0 20 -27
36 -60z m1234 -415 c21 -82 16 -102 -36 -135 -58 -37 -82 -38 -115 -2 -61 65
-35 198 70 351 l57 84 7 -129 c4 -71 12 -147 17 -169z m-250 204 c-6 -12 -26
-65 -45 -118 -27 -80 -36 -96 -54 -95 -11 0 -36 1 -56 2 l-37 2 7 78 c10 120
8 117 84 135 37 8 77 15 90 16 20 1 21 -1 11 -20z m619 -54 c28 -8 26 -26 -21
-155 -26 -73 -68 -230 -83 -308 -7 -35 -23 -18 -62 67 -36 75 -36 78 -40 228
-5 173 -12 159 89 172 65 8 75 8 117 -4z m560 -52 c18 -3 32 -9 30 -13 -3 -9
-138 -150 -143 -150 -7 0 -26 160 -20 170 7 11 37 10 133 -7z"/>
<path d="M2721 4983 c-79 -46 -239 -196 -258 -241 -16 -38 -5 -67 27 -77 17
-5 40 13 118 90 53 54 122 115 153 136 31 20 63 49 73 63 15 24 15 27 -4 46
-27 27 -36 26 -109 -17z"/>
<path d="M6946 4468 c-15 -17 -20 -18 -28 -7 -14 20 -2 -47 27 -156 13 -49 31
-147 39 -216 16 -141 27 -169 68 -169 21 0 29 6 34 26 12 47 -25 312 -59 422
-34 112 -52 134 -81 100z"/>
</g>
</svg>
