<svg width="29" height="22" viewBox="0 0 29 22" fill="none" xmlns="http://www.w3.org/2000/svg">
<path d="M24.2032 2.24068C22.4182 1.43568 20.5048 0.840677 18.504 0.502343C18.4862 0.498922 18.4677 0.501127 18.4512 0.508652C18.4347 0.516177 18.421 0.52865 18.4118 0.544343C18.1668 0.974843 17.8938 1.53601 17.7025 1.97934C15.5805 1.66229 13.4231 1.66229 11.301 1.97934C11.0879 1.48801 10.8476 1.00894 10.5812 0.544343C10.5721 0.528456 10.5585 0.515701 10.542 0.50778C10.5256 0.499859 10.5071 0.497148 10.489 0.50001C8.48935 0.838343 6.57601 1.43334 4.78984 2.23951C4.77448 2.24596 4.76145 2.25695 4.75251 2.27101C1.12184 7.60851 0.126678 12.8142 0.615511 17.9545C0.616872 17.9671 0.62078 17.9793 0.626997 17.9903C0.633215 18.0013 0.641612 18.011 0.651678 18.0187C2.7708 19.5615 5.1344 20.7368 7.64351 21.4953C7.661 21.5007 7.67971 21.5007 7.69719 21.4953C7.71468 21.4899 7.73012 21.4793 7.74151 21.465C8.28051 20.7417 8.76118 19.9775 9.17185 19.1748C9.19635 19.1282 9.17301 19.0722 9.12401 19.0535C8.37035 18.7697 7.64011 18.4272 6.94001 18.0292C6.92743 18.022 6.91683 18.0118 6.90916 17.9995C6.90149 17.9872 6.89699 17.9732 6.89607 17.9588C6.89514 17.9443 6.89782 17.9299 6.90386 17.9167C6.9099 17.9035 6.91912 17.8921 6.93068 17.8833C7.07768 17.7748 7.22468 17.6617 7.36468 17.5485C7.37728 17.5383 7.39246 17.5319 7.40853 17.5298C7.42459 17.5277 7.44092 17.5302 7.45568 17.5368C12.0372 19.5948 16.999 19.5948 21.5268 17.5368C21.5416 17.5298 21.5581 17.527 21.5744 17.5289C21.5907 17.5307 21.6062 17.5371 21.619 17.5473C21.759 17.6617 21.9048 17.7748 22.053 17.8833C22.0647 17.8919 22.0741 17.9032 22.0803 17.9162C22.0865 17.9293 22.0894 17.9437 22.0887 17.9581C22.088 17.9726 22.0838 17.9866 22.0763 17.999C22.0689 18.0114 22.0585 18.0218 22.046 18.0292C21.3483 18.4305 20.6227 18.77 19.8608 19.0523C19.8491 19.0566 19.8385 19.0633 19.8296 19.072C19.8207 19.0807 19.8137 19.0912 19.8092 19.1028C19.8047 19.1144 19.8027 19.1268 19.8033 19.1392C19.804 19.1516 19.8073 19.1638 19.813 19.1748C20.233 19.9763 20.7137 20.7393 21.2422 21.4638C21.2532 21.4787 21.2685 21.4898 21.286 21.4957C21.3036 21.5015 21.3225 21.5018 21.3402 21.4965C23.8536 20.7401 26.2211 19.5642 28.3425 18.0187C28.3529 18.0114 28.3615 18.0021 28.368 17.9912C28.3744 17.9803 28.3785 17.9682 28.3798 17.9557C28.9632 12.0127 27.4022 6.84901 24.2393 2.27334C24.2316 2.25847 24.2188 2.24688 24.2032 2.24068ZM9.85668 14.8243C8.47768 14.8243 7.34018 13.5772 7.34018 12.0477C7.34018 10.517 8.45551 9.27101 9.85668 9.27101C11.2683 9.27101 12.3953 10.5275 12.3732 12.0477C12.3732 13.5783 11.2578 14.8243 9.85668 14.8243ZM19.1608 14.8243C17.7807 14.8243 16.6443 13.5772 16.6443 12.0477C16.6443 10.517 17.7585 9.27101 19.1608 9.27101C20.5725 9.27101 21.6995 10.5275 21.6773 12.0477C21.6773 13.5783 20.5737 14.8243 19.1608 14.8243Z" fill="white"/>
</svg>
